<svg viewBox="0 0 141 36" fill="none" xmlns="http://www.w3.org/2000/svg"><rect width="141" height="36" rx="4" fill="#7859CF"/><path fill-rule="evenodd" clip-rule="evenodd" d="M33.67 23.52v-.02h1.35l-.03.21a2.67 2.67 0 0 1-2.64 2.29h-8.7a2.67 2.67 0 0 1-2.64-2.29l-.82-5.71-.19-1.33h4.55l-.22-2.68a3.68 3.68 0 0 1 7.29-.99h-1.37a2.35 2.35 0 0 0-4.59.88l.23 2.79h3.61v1.33h-3.44l.22 2.67h3.44l.01-.17h1.34l-.01.17h1.44v1.33h-1.55l-.23 2.67h1.63c.67 0 1.23-.5 1.32-1.15Zm-8.95-5.52h-3.18l.38 2.67h3.02l-.22-2.67Zm1.9 6.67-.23-2.67h3.22l-.22 2.67h-2.78Zm-1.57-2.67.23 2.67h-1.63c-.67 0-1.23-.5-1.32-1.15l-.22-1.52h2.94Zm10.75-2v-2.8h-2.8v-1.4h2.8v-2.8h1.4v2.8h2.8v1.4h-2.8v2.8h-1.4Z" fill="#fff"/><path d="M47.65 23v-9.8h4.08c1.03 0 1.84.21 2.43.64.6.42.9 1.04.9 1.87 0 .8-.29 1.42-.86 1.84-.57.41-1.31.62-2.24.62l.24-.35c1.1 0 1.92.21 2.5.64.56.43.85 1.06.85 1.9 0 .83-.3 1.49-.9 1.95-.59.46-1.47.69-2.66.69h-4.34Zm1.02-.83h3.32c.83 0 1.46-.15 1.9-.46.42-.3.64-.78.64-1.43 0-.63-.22-1.1-.65-1.4a3.3 3.3 0 0 0-1.89-.44h-3.32v3.73Zm0-4.53h3c.76 0 1.33-.15 1.74-.45.4-.3.61-.76.61-1.36 0-.6-.2-1.04-.61-1.34a2.8 2.8 0 0 0-1.74-.46h-3v3.6Zm18.28 5.36-3.02-3.64.83-.49 3.37 4.13h-1.18Zm-5.39 0v-7.35h1v7.35h-1Zm.69-3.28v-.85h2.37v.85h-2.37Zm2.59-.29-.92-.14 2.92-3.64h1.08l-3.08 3.78Zm7.62 3.64a3.64 3.64 0 0 1-3.74-3.75c0-.74.17-1.39.5-1.95.32-.56.77-1 1.33-1.31.56-.32 1.2-.48 1.91-.48.73 0 1.38.16 1.94.48a3.4 3.4 0 0 1 1.33 1.31c.32.56.49 1.21.49 1.95 0 .73-.17 1.37-.5 1.94-.31.56-.76 1-1.32 1.33a3.9 3.9 0 0 1-1.94.48Zm0-.88c.54 0 1-.12 1.42-.35.4-.24.73-.58.96-1.01a3 3 0 0 0 .37-1.51c0-.58-.12-1.08-.37-1.51a2.48 2.48 0 0 0-.96-1 2.7 2.7 0 0 0-1.4-.36 2.7 2.7 0 0 0-2.38 1.36c-.25.43-.37.93-.37 1.5a3 3 0 0 0 .37 1.52 2.66 2.66 0 0 0 2.36 1.36Zm9.67.88c-.63 0-1.2-.14-1.72-.43a3.3 3.3 0 0 1-1.23-1.28 4.3 4.3 0 0 1-.45-2.04c0-.8.15-1.48.45-2.03.3-.56.7-.99 1.22-1.28a3.44 3.44 0 0 1 1.73-.43 3.68 3.68 0 0 1 3.2 1.79c.31.56.47 1.21.47 1.95s-.16 1.4-.47 1.96a3.68 3.68 0 0 1-3.2 1.79Zm-3.79 2.65v-10.07h.95v2.21l-.1 1.47.14 1.49v4.9h-.99Zm3.72-3.53c.53 0 1-.12 1.4-.35.41-.24.74-.58.98-1.01a3 3 0 0 0 .37-1.51 3 3 0 0 0-.37-1.5 2.68 2.68 0 0 0-2.38-1.37 2.64 2.64 0 0 0-2.39 1.37c-.23.43-.35.93-.35 1.5s.12 1.07.35 1.51c.24.43.57.77.98 1 .42.24.9.36 1.41.36Zm7.8.9c-.54 0-1.06-.08-1.59-.23a4.1 4.1 0 0 1-1.38-.69l.32-.74c.36.26.77.46 1.23.6.47.13.93.2 1.39.2.46 0 .85-.07 1.19-.2.33-.12.6-.29.78-.5.19-.21.28-.46.28-.73 0-.39-.17-.7-.53-.9a2.71 2.71 0 0 0-1.46-.34h-1.26v-.73h1.2c.36 0 .68-.05.96-.14.28-.1.5-.23.64-.4a.91.91 0 0 0 .24-.64c0-.26-.1-.48-.28-.67a1.63 1.63 0 0 0-.74-.42c-.32-.1-.68-.14-1.08-.14a5.6 5.6 0 0 0-2.29.6l-.28-.77a6.3 6.3 0 0 1 1.27-.5c.43-.12.86-.18 1.29-.18.59-.02 1.11.05 1.58.2.48.16.85.4 1.13.7.28.28.42.63.42 1.04 0 .37-.1.68-.33.95a2.2 2.2 0 0 1-.9.63c-.37.15-.8.23-1.27.23l.04-.27c.84 0 1.5.17 1.96.5.48.32.71.76.71 1.32 0 .44-.14.83-.43 1.16a2.9 2.9 0 0 1-1.18.77c-.48.2-1.03.28-1.63.28Zm5.5-.09v-7.35h1v5.84l4.9-5.84h.9v7.35h-1v-5.85l-4.9 5.85h-.9Zm9.64 0v-7.35h1v3.25h4.63v-3.25h1v7.35h-1v-3.25h-4.64v3.25h-.99Zm9.57 2.79c-.34 0-.67-.06-1-.17-.3-.11-.56-.28-.79-.5l.46-.75c.19.18.4.31.6.4.23.11.48.16.75.16.32 0 .6-.1.84-.28.24-.18.47-.5.68-.95l.48-1.08.11-.15 3.02-6.82h.98l-3.68 8.23c-.2.48-.43.86-.68 1.14a2.33 2.33 0 0 1-1.77.77Zm1.96-2.58-3.39-7.56h1.04l3 6.75-.65.81Z" fill="#fff"/></svg>